<svg xmlns="http://www.w3.org/2000/svg" viewBox="0 0 24 24" fill="currentColor">
  <!-- Lynx head silhouette for VS Code activity bar (monochrome) -->
  <!-- Left ear -->
  <path d="M5.5 2L3 7.5L7 8Z"/>
  <!-- Right ear -->
  <path d="M18.5 2L21 7.5L17 8Z"/>
  <!-- Head -->
  <path d="M6 8C4.5 9 3.5 11 3.5 13C3.5 14.5 4 15.5 5 16.5L4 18L5.5 18.5L7 17C8.5 17.8 10.2 18.2 12 18.2C13.8 18.2 15.5 17.8 17 17L18.5 18.5L20 18L19 16.5C20 15.5 20.5 14.5 20.5 13C20.5 11 19.5 9 18 8L17 8L16.5 5.5L12 7L7.5 5.5L7 8Z"/>
  <!-- Left eye -->
  <circle cx="9" cy="12" r="1.3" fill="white"/>
  <circle cx="9.3" cy="11.8" r="0.6"/>
  <!-- Right eye -->
  <circle cx="15" cy="12" r="1.3" fill="white"/>
  <circle cx="15.3" cy="11.8" r="0.6"/>
  <!-- Nose -->
  <path d="M11 14.5L12 15.2L13 14.5Z" fill="white"/>
  <!-- Jaw tufts -->
  <path d="M6 14.5C5 15 4 15.5 3 16L4 14.5Z"/>
  <path d="M18 14.5C19 15 20 15.5 21 16L20 14.5Z"/>
</svg>
