<svg width="1200" height="640" viewBox="0 0 1200 640" fill="none" xmlns="http://www.w3.org/2000/svg" role="img" aria-labelledby="title desc">
<title id="title">LynxPrompt for VS Code</title>
<desc id="desc">Official LynxPrompt VS Code extension banner showing blueprint browsing, local config sync, pull, diff, and push workflows.</desc>
<defs>
  <linearGradient id="bg" x1="68" y1="44" x2="1112" y2="606" gradientUnits="userSpaceOnUse">
    <stop stop-color="#0A1022"/>
    <stop offset="1" stop-color="#132757"/>
  </linearGradient>
  <linearGradient id="panel" x1="690" y1="92" x2="1110" y2="548" gradientUnits="userSpaceOnUse">
    <stop stop-color="#0F1A38"/>
    <stop offset="1" stop-color="#101934"/>
  </linearGradient>
  <linearGradient id="accent" x1="88" y1="110" x2="516" y2="404" gradientUnits="userSpaceOnUse">
    <stop stop-color="#52A3FF"/>
    <stop offset="1" stop-color="#8E7DFF"/>
  </linearGradient>
  <filter id="shadow" x="650" y="64" width="512" height="520" filterUnits="userSpaceOnUse" color-interpolation-filters="sRGB">
    <feFlood flood-opacity="0" result="BackgroundImageFix"/>
    <feColorMatrix in="SourceAlpha" type="matrix" values="0 0 0 0 0 0 0 0 0 0 0 0 0 0 0 0 0 0 127 0" result="hardAlpha"/>
    <feOffset dx="0" dy="16"/>
    <feGaussianBlur stdDeviation="20"/>
    <feColorMatrix type="matrix" values="0 0 0 0 0.0196078 0 0 0 0 0.0627451 0 0 0 0 0.14902 0 0 0 0.42 0"/>
    <feBlend mode="normal" in2="BackgroundImageFix" result="effect1_dropShadow_1_1"/>
    <feBlend mode="normal" in="SourceGraphic" in2="effect1_dropShadow_1_1" result="shape"/>
  </filter>
</defs>
<rect x="20" y="20" width="1160" height="600" rx="32" fill="url(#bg)"/>
<circle cx="139" cy="106" r="74" fill="#2D5BFF" fill-opacity="0.12"/>
<circle cx="1063" cy="549" r="96" fill="#7E64FF" fill-opacity="0.12"/>
<path d="M110 422C172 365 232 339 313 339C408 339 451 384 537 384" stroke="url(#accent)" stroke-width="14" stroke-linecap="round"/>
<path d="M110 462C168 424 241 408 326 408C406 408 452 432 519 468" stroke="#5AB6FF" stroke-opacity="0.4" stroke-width="8" stroke-linecap="round"/>

<text x="88" y="118" fill="#8FB4FF" font-family="Segoe UI, Helvetica, Arial, sans-serif" font-size="26" font-weight="700">Official VS Code Extension</text>
<text x="88" y="206" fill="#FFFFFF" font-family="Segoe UI, Helvetica, Arial, sans-serif" font-size="64" font-weight="700">LynxPrompt</text>
<text x="88" y="270" fill="#D7E3FF" font-family="Segoe UI, Helvetica, Arial, sans-serif" font-size="54" font-weight="700">for VS Code</text>
<text x="88" y="336" fill="#C6D3F8" font-family="Segoe UI, Helvetica, Arial, sans-serif" font-size="27">Browse blueprints, pull files into the right paths,</text>
<text x="88" y="374" fill="#C6D3F8" font-family="Segoe UI, Helvetica, Arial, sans-serif" font-size="27">diff local vs cloud, and push updates without</text>
<text x="88" y="412" fill="#C6D3F8" font-family="Segoe UI, Helvetica, Arial, sans-serif" font-size="27">leaving the editor.</text>

<rect x="88" y="476" width="174" height="46" rx="23" fill="#17346F"/>
<text x="116" y="506" fill="#8FD0FF" font-family="Segoe UI, Helvetica, Arial, sans-serif" font-size="20" font-weight="700">My Blueprints</text>
<rect x="278" y="476" width="164" height="46" rx="23" fill="#172F5A"/>
<text x="309" y="506" fill="#B8C8FF" font-family="Segoe UI, Helvetica, Arial, sans-serif" font-size="20" font-weight="700">Local Files</text>
<rect x="458" y="476" width="126" height="46" rx="23" fill="#1B2250"/>
<text x="492" y="506" fill="#D7D3FF" font-family="Segoe UI, Helvetica, Arial, sans-serif" font-size="20" font-weight="700">Diff</text>

<g filter="url(#shadow)">
  <rect x="690" y="92" width="420" height="456" rx="28" fill="url(#panel)" stroke="#304877" stroke-width="1.5"/>
  <rect x="690" y="92" width="420" height="48" rx="28" fill="#101A38"/>
  <circle cx="726" cy="116" r="7" fill="#FF6B6B"/>
  <circle cx="750" cy="116" r="7" fill="#FFB74D"/>
  <circle cx="774" cy="116" r="7" fill="#64D68B"/>
  <text x="822" y="122" fill="#CAD8FF" font-family="Segoe UI, Helvetica, Arial, sans-serif" font-size="19" font-weight="700">LynxPrompt Sidebar</text>

  <rect x="714" y="160" width="118" height="356" rx="18" fill="#0B1430"/>
  <text x="734" y="190" fill="#8FB4FF" font-family="Segoe UI, Helvetica, Arial, sans-serif" font-size="15" font-weight="700">VIEWS</text>

  <rect x="728" y="208" width="90" height="64" rx="14" fill="#15305F"/>
  <text x="742" y="236" fill="#EAF1FF" font-family="Segoe UI, Helvetica, Arial, sans-serif" font-size="14" font-weight="700">My</text>
  <text x="742" y="255" fill="#EAF1FF" font-family="Segoe UI, Helvetica, Arial, sans-serif" font-size="14" font-weight="700">Blueprints</text>

  <rect x="728" y="286" width="90" height="64" rx="14" fill="#1A224C"/>
  <text x="742" y="314" fill="#EAF1FF" font-family="Segoe UI, Helvetica, Arial, sans-serif" font-size="14" font-weight="700">Local</text>
  <text x="742" y="333" fill="#EAF1FF" font-family="Segoe UI, Helvetica, Arial, sans-serif" font-size="14" font-weight="700">Configs</text>

  <text x="856" y="190" fill="#A9BEF7" font-family="Segoe UI, Helvetica, Arial, sans-serif" font-size="15" font-weight="700">MY BLUEPRINTS</text>
  <rect x="854" y="210" width="222" height="54" rx="16" fill="#173669"/>
  <circle cx="878" cy="237" r="7" fill="#5BC0FF"/>
  <text x="895" y="232" fill="#FFFFFF" font-family="Segoe UI, Helvetica, Arial, sans-serif" font-size="15" font-weight="700">AGENTS.md</text>
  <text x="895" y="250" fill="#B8CBFF" font-family="Segoe UI, Helvetica, Arial, sans-serif" font-size="13">Team coding blueprint</text>

  <rect x="854" y="276" width="222" height="54" rx="16" fill="#132A55"/>
  <circle cx="878" cy="303" r="7" fill="#8E7DFF"/>
  <text x="895" y="298" fill="#FFFFFF" font-family="Segoe UI, Helvetica, Arial, sans-serif" font-size="15" font-weight="700">CLAUDE.md</text>
  <text x="895" y="316" fill="#B8CBFF" font-family="Segoe UI, Helvetica, Arial, sans-serif" font-size="13">Workspace assistant rules</text>

  <text x="856" y="366" fill="#A9BEF7" font-family="Segoe UI, Helvetica, Arial, sans-serif" font-size="15" font-weight="700">LOCAL CONFIG FILES</text>
  <rect x="854" y="386" width="222" height="46" rx="14" fill="#101B3D"/>
  <text x="876" y="414" fill="#F2F6FF" font-family="Segoe UI, Helvetica, Arial, sans-serif" font-size="14" font-weight="700">.cursor/rules/project.mdc</text>
  <rect x="1012" y="397" width="48" height="24" rx="12" fill="#153F63"/>
  <text x="1021" y="414" fill="#7FE4FF" font-family="Segoe UI, Helvetica, Arial, sans-serif" font-size="12" font-weight="700">SYNC</text>

  <rect x="854" y="444" width="222" height="46" rx="14" fill="#101B3D"/>
  <text x="876" y="472" fill="#F2F6FF" font-family="Segoe UI, Helvetica, Arial, sans-serif" font-size="14" font-weight="700">AGENTS.md</text>
  <rect x="1017" y="455" width="43" height="24" rx="12" fill="#412A5E"/>
  <text x="1027" y="472" fill="#DDBBFF" font-family="Segoe UI, Helvetica, Arial, sans-serif" font-size="12" font-weight="700">DIFF</text>

  <path d="M824 514H1076" stroke="#2E436D" stroke-width="2" stroke-linecap="round"/>
  <rect x="854" y="522" width="104" height="16" rx="8" fill="#234985"/>
  <rect x="968" y="522" width="108" height="16" rx="8" fill="#2B2E63"/>
</g>
</svg>
